<svg fill="none" height="40" viewBox="0 0 241 40" width="241" xmlns="http://www.w3.org/2000/svg"><g fill="#2f2227"><path d="m189.7 19.2778v9.2331h-4.432v-15.9708h4.224v2.8178h.188c.353-.9289.946-1.6636 1.779-2.2043.832-.5476 1.841-.8214 3.027-.8214 1.11 0 2.077.2426 2.903.7278.825.4852 1.467 1.1784 1.924 2.0796.458.8942.687 1.9616.687 3.2024v10.1689h-4.432v-9.3786c.007-.9774-.243-1.7399-.749-2.2875-.506-.5546-1.203-.8318-2.091-.8318-.597 0-1.124.1282-1.582.3847-.45.2564-.804.6308-1.061 1.1229-.249.4852-.378 1.071-.385 1.7572z"/><path d="m178.751 28.5109v-15.9708h4.432v15.9708zm2.226-18.0295c-.658 0-1.224-.2184-1.695-.65506-.465-.44363-.697-.97391-.697-1.59084 0-.61.232-1.13335.697-1.57005.471-.44363 1.037-.66545 1.695-.66545.659 0 1.221.22182 1.686.66545.471.4367.707.96005.707 1.57005 0 .61693-.236 1.14721-.707 1.59084-.465.43666-1.027.65506-1.686.65506z"/><path d="m169.469 28.8229c-1.616 0-3.014-.3431-4.193-1.0294-1.172-.6932-2.077-1.6567-2.715-2.8905-.638-1.2408-.957-2.6792-.957-4.3151 0-1.6497.319-3.0915.957-4.3254.638-1.2408 1.543-2.2043 2.715-2.8906 1.179-.6931 2.577-1.0397 4.193-1.0397s3.01.3466 4.182 1.0397c1.179.6863 2.088 1.6498 2.726 2.8906.638 1.2339.957 2.6757.957 4.3254 0 1.6359-.319 3.0743-.957 4.3151-.638 1.2338-1.547 2.1973-2.726 2.8905-1.172.6863-2.566 1.0294-4.182 1.0294zm.021-3.4312c.735 0 1.349-.208 1.841-.6239.493-.4228.864-.9982 1.113-1.726.257-.7279.385-1.5562.385-2.4851 0-.9288-.128-1.7572-.385-2.485-.249-.7278-.62-1.3032-1.113-1.726-.492-.4229-1.106-.6343-1.841-.6343-.742 0-1.367.2114-1.873.6343-.499.4228-.877.9982-1.134 1.726-.25.7278-.374 1.5562-.374 2.485 0 .9289.124 1.7572.374 2.4851.257.7278.635 1.3032 1.134 1.726.506.4159 1.131.6239 1.873.6239z"/><path d="m153.739 28.8229c-1.637 0-3.045-.3466-4.224-1.0398-1.172-.7001-2.074-1.6705-2.705-2.9113-.624-1.2408-.936-2.6688-.936-4.2839 0-1.6359.316-3.0707.947-4.3046.638-1.2408 1.543-2.2078 2.715-2.901 1.172-.7001 2.566-1.0501 4.182-1.0501 1.394 0 2.615.253 3.662.759 1.048.506 1.877 1.2165 2.487 2.1315s.947 1.9895 1.009 3.2233h-4.182c-.118-.7971-.43-1.4383-.937-1.9236-.499-.4921-1.154-.7382-1.966-.7382-.687 0-1.286.1872-1.8.5615-.506.3674-.901.9046-1.186 1.6116-.284.7071-.426 1.5631-.426 2.5682 0 1.019.138 1.8855.416 2.5995.284.7139.683 1.2581 1.196 1.6324.514.3743 1.113.5615 1.8.5615.506 0 .961-.104 1.363-.312.409-.2079.746-.5094 1.009-.9046.271-.402.448-.8838.531-1.4452h4.182c-.069 1.22-.402 2.2944-.999 3.2232-.589.922-1.404 1.6429-2.445 2.1628-1.04.5198-2.271.7798-3.693.7798z"/><path d="m134.069 34.5c-.562 0-1.089-.0451-1.581-.1352-.486-.0832-.888-.1906-1.207-.3223l.999-3.3065c.52.1595.988.2461 1.404.26.423.0139.787-.0832 1.092-.2911.313-.208.566-.5615.76-1.0606l.26-.6759-5.732-16.4283h4.66l3.309 11.7286h.166l3.34-11.7286h4.692l-6.211 17.6969c-.298.8595-.704 1.6081-1.217 2.2458-.507.6447-1.148 1.1403-1.925 1.4869-.777.3535-1.713.5303-2.809.5303z"/><path d="m129.911 12.5401v3.3273h-9.624v-3.3273zm-7.439-3.82629h4.432v14.88949c0 .4089.062.7278.187.9565.125.2219.298.3778.52.4679.229.0902.493.1352.791.1352.208 0 .416-.0173.624-.052.208-.0416.368-.0728.479-.0936l.697 3.2961c-.222.0693-.534.149-.936.2392-.403.097-.892.1559-1.467.1767-1.068.0416-2.005-.1005-2.809-.4263-.798-.3258-1.419-.8318-1.863-1.5181-.443-.6862-.662-1.5527-.655-2.5994z"/><path d="m114.899 21.7109v-9.1708h4.432v15.9708h-4.255v-2.9009h-.167c-.361.9358-.961 1.6879-1.8 2.2563-.832.5684-1.848.8526-3.048.8526-1.068 0-2.008-.2426-2.819-.7278-.812-.4853-1.447-1.175-1.904-2.0692-.451-.8942-.68-1.9651-.687-3.2129v-10.1689h4.432v9.3787c.007.9427.26 1.6879.76 2.2355.499.5476 1.168.8214 2.007.8214.534 0 1.034-.1213 1.499-.3639.464-.2495.839-.6169 1.123-1.1021.291-.4853.434-1.0849.427-1.7988z"/><path d="m93.6784 28.8125c-1.0196 0-1.9282-.1768-2.7258-.5303-.7976-.3605-1.4288-.8907-1.8935-1.5908-.4577-.7071-.6866-1.5874-.6866-2.641 0-.8873.163-1.6325.489-2.2355.3259-.6031.7698-1.0883 1.3316-1.4557s1.1999-.6447 1.9143-.8318c.7213-.1872 1.4773-.3189 2.268-.3951.9294-.0971 1.6785-.1872 2.2472-.2704.5687-.0901.9814-.2218 1.238-.3951s.385-.4298.385-.7694v-.0624c0-.6585-.2081-1.168-.6243-1.5285-.4092-.3604-.9918-.5406-1.7478-.5406-.7976 0-1.4322.1767-1.9038.5302-.4717.3466-.7838.7833-.9364 1.3101l-4.099-.3327c.2081-.9704.6173-1.8092 1.2276-2.5162.6104-.714 1.3976-1.2616 2.3617-1.6428.971-.3882 2.0946-.5823 3.3707-.5823.8878 0 1.7374.104 2.5489.3119.8184.208 1.5432.5303 2.1748.967.638.4367 1.141.9982 1.508 1.6844.368.6793.552 1.4938.552 2.4435v10.772h-4.2036v-2.2148h-.1248c-.2566.4991-.5999.9393-1.03 1.3206-.43.3743-.9467.6689-1.5501.8838-.6034.2079-1.3005.3119-2.0911.3119zm1.2692-3.0569c.652 0 1.2276-.1283 1.727-.3847.4994-.2635.8913-.617 1.1756-1.0606.2844-.4436.4266-.9462.4266-1.5077v-1.6948c-.1387.0901-.3295.1733-.5722.2496-.2358.0693-.5029.1351-.8011.1975-.2982.0555-.5965.1075-.8947.156-.2983.0416-.5688.0797-.8115.1144-.5202.0762-.9745.1975-1.3629.3639-.3884.1663-.6901.3916-.9051.6758-.215.2773-.3225.6239-.3225 1.0398 0 .603.2185 1.064.6554 1.3829.4439.3119 1.0057.4679 1.6854.4679z"/><path d="m80.3596 28.8229c-1.6437 0-3.0586-.3327-4.2446-.9982-1.1791-.6724-2.0877-1.622-2.7258-2.849-.6381-1.2338-.9571-2.693-.9571-4.3774 0-1.6428.319-3.0846.9571-4.3254s1.5363-2.2078 2.6945-2.901c1.1653-.6931 2.5316-1.0397 4.0991-1.0397 1.0542 0 2.0356.1698 2.9442.5095.9155.3327 1.7131.8352 2.3929 1.5076.6866.6724 1.2206 1.5181 1.6021 2.5371.3815 1.012.5722 2.1973.5722 3.556v1.2165h-13.4935v-2.745h9.3217c0-.6377-.1388-1.2027-.4162-1.6948-.2774-.4922-.6624-.8769-1.1548-1.1542-.4855-.2842-1.0508-.4263-1.6958-.4263-.6728 0-1.2692.156-1.7894.4679-.5133.305-.9155.7175-1.2068 1.2374-.2913.5129-.4405 1.0848-.4474 1.7156v2.6098c0 .7902.1457 1.473.437 2.0483.2982.5754.7178 1.019 1.2588 1.3309.541.312 1.1825.4679 1.9247.4679.4924 0 .9432-.0693 1.3524-.2079.4093-.1387.7595-.3466 1.0508-.6239s.5133-.6169.6658-1.019l4.0991.2704c-.2081.9843-.6346 1.8438-1.2797 2.5786-.6381.7278-1.4634 1.2962-2.476 1.7052-1.0057.4021-2.1675.6031-3.4853.6031z"/><path d="m56 28.5109v-21.29438h4.432v8.00618h.1352c.1942-.4297.4751-.8664.8427-1.3101.3745-.4505.86-.8249 1.4565-1.1229.6034-.305 1.3525-.4575 2.2472-.4575 1.1652 0 2.2402.305 3.2251.915.9849.603 1.7721 1.5146 2.3617 2.7346.5895 1.213.8843 2.7345.8843 4.5645 0 1.7815-.2879 3.2857-.8635 4.5126-.5688 1.22-1.3456 2.1454-2.3305 2.7762-.9779.6239-2.0738.9358-3.2875.9358-.86 0-1.5918-.1421-2.1952-.4263-.5965-.2842-1.0854-.6412-1.4669-1.071-.3815-.4367-.6728-.8769-.8739-1.3205h-.1977v2.5578zm4.3383-7.9854c0 .9497.1318 1.778.3954 2.4851.2635.707.645 1.2581 1.1444 1.6532.4993.3882 1.1062.5823 1.8206.5823.7213 0 1.3317-.1976 1.831-.5927.4994-.402.8774-.9566 1.134-1.6636.2636-.714.3954-1.5354.3954-2.4643 0-.9219-.1283-1.7329-.385-2.433-.2566-.7001-.6346-1.2477-1.134-1.6429-.4993-.3951-1.1131-.5926-1.8414-.5926-.7213 0-1.3317.1906-1.831.5719-.4925.3812-.8705.9219-1.134 1.622-.2636.7001-.3954 1.525-.3954 2.4746z"/><path clip-rule="evenodd" d="m34 0v12c0 1.8-.3963 3.5075-1.1065 5.0399 4.1882 1.8727 7.1065 6.0756 7.1065 10.9601v12h-28c-6.62742 0-12-5.3726-12-12v-16c0-6.62742 5.37258-12 12-12zm-8 12c0 2.2091-1.7909 4-4 4h-6v8h12c2.2091 0 4 1.7909 4 4v4h-20c-2.20914 0-4-1.7909-4-4v-16c0-2.20914 1.79086-4 4-4h14z" fill-rule="evenodd"/><g opacity=".48"><path d="m230.132 12.6143c.242 0 .455-.0475.641-.1424.185-.0976.33-.2285.436-.3927.105-.1643.158-.3504.158-.5583v-.6275c-.051.0334-.122.0642-.212.0924-.088.0257-.187.0501-.297.0732-.111.0205-.222.0397-.332.0577-.111.0154-.211.0295-.301.0424-.193.0282-.362.0731-.506.1347s-.256.145-.336.2502c-.08.1027-.12.231-.12.385 0 .2233.082.394.244.5121.164.1154.373.1732.625.1732z"/><path d="m222.212 10.0811h-2.489c.01-.21235.065-.40613.165-.58134.108-.19249.257-.3452.448-.45813.193-.11549.414-.17324.664-.17324.239 0 .449.05261.629.15784.182.10266.325.24511.428.42734.103.18222.155.3914.155.62753z"/><path d="m213.756 11.5979c-.097-.2618-.146-.5685-.146-.9201s.049-.657.146-.91625c.098-.25923.238-.45942.421-.60058.185-.14116.412-.21174.679-.21174.271 0 .498.07315.684.21944.185.14629.325.34905.42.60828.096.25925.143.55955.143.90085 0 .3439-.049.6481-.146.9124-.096.2618-.236.4671-.421.616-.185.1463-.412.2194-.68.2194-.265 0-.49-.0718-.675-.2155-.185-.1463-.327-.3504-.425-.6122z"/><path clip-rule="evenodd" d="m204 10c0-5.52285 4.477-10 10-10h17c5.523 0 10 4.47715 10 10 0 5.5228-4.477 10-10 10h-17c-5.523 0-10-4.4772-10-10zm25.661 3.7462c-.378 0-.715-.0655-1.011-.1964-.296-.1335-.53-.3298-.703-.589-.17-.2618-.255-.5878-.255-.9779 0-.3285.061-.6044.182-.8277s.286-.403.494-.539.445-.2387.71-.308c.268-.0693.548-.118.842-.1463.345-.0359.622-.0693.833-.1001.211-.0333.365-.08209.46-.14625.095-.06417.143-.15913.143-.28489v-.0231c0-.24382-.078-.43247-.232-.56593-.152-.13346-.368-.20019-.648-.20019-.296 0-.532.06545-.707.19634-.175.12833-.291.29002-.347.48508l-1.521-.12319c.077-.35932.229-.66988.455-.93167.227-.26435.519-.46711.877-.60827.36-.14373.777-.2156 1.25-.2156.33 0 .645.0385.946.1155.304.077.573.19634.807.35804.236.16169.423.36958.559.62367.137.25153.205.5531.205.90472v3.98844h-1.559v-.82h-.047c-.095.1848-.222.3478-.382.4889-.159.1386-.351.2477-.575.3273-.224.077-.483.1155-.776.1155zm-2.218-4.79313v-1.23196h-1.116v-1.41674h-1.644v1.41674h-.811v1.23196h.811v3.07993c-.003.3875.078.7083.243.9624s.395.4415.691.5621c.298.1206.646.1732 1.042.1578.214-.0077.395-.0295.544-.0654.15-.0334.265-.0629.348-.0886l-.259-1.2204c-.041.0077-.1.0193-.177.0347-.078.0128-.155.0192-.232.0192-.111 0-.208-.0166-.293-.05-.083-.0334-.147-.0911-.193-.1733-.047-.0847-.07-.2027-.07-.3541v-2.86433zm-6.405 4.79693c-.61 0-1.135-.1232-1.575-.3696-.437-.2489-.774-.6006-1.011-1.0548-.237-.4569-.355-.9972-.355-1.6208 0-.6083.118-1.14216.355-1.60157.237-.45942.57-.81745 1-1.07411.432-.25666.939-.38499 1.52-.38499.392 0 .756.06289 1.093.18865.34.12319.635.30927.888.55823.254.24895.453.56207.594.93936.142.37472.212.81363.212 1.31663v.4505h-4.037v.0038c0 .2926.054.5454.162.7584.111.213.266.3773.467.4928s.439.1732.714.1732c.183 0 .35-.0256.502-.0769.152-.0514.282-.1284.39-.231.108-.1027.19-.2285.247-.3773l1.521.1001c-.078.3644-.236.6827-.475.9547-.237.2695-.543.48-.919.6314-.373.1489-.804.2233-1.293.2233zm-9.038-8v7.8845h1.621v-.9471h.074c.074.1643.182.3273.324.489.141.1591.323.2913.544.3965.224.1052.495.1578.815.1578.45 0 .856-.1154 1.219-.3464.366-.2336.654-.5762.865-1.028.214-.4542.32-1.0112.32-1.6708 0-.6776-.109-1.24092-.328-1.69007-.218-.45172-.511-.78922-.876-1.01251-.365-.22586-.764-.33879-1.197-.33879-.332 0-.609.05646-.833.16939-.222.11036-.402.24896-.541.41579-.136.16426-.24.32595-.312.48508h-.051v-2.96439z" fill-rule="evenodd"/></g></g></svg>