<svg fill="none" height="20" viewBox="0 0 20 20" width="20" xmlns="http://www.w3.org/2000/svg"><path d="m10 1.875c-1.60697 0-3.17786.47652-4.514 1.36931-1.33615.89279-2.37756 2.16174-2.99252 3.64639s-.77586 3.1183-.46236 4.6944c.31351 1.5761 1.08734 3.0238 2.22364 4.1601s2.58404 1.9102 4.16014 2.2237c1.57609.3135 3.2098.1526 4.6944-.4624 1.4847-.6149 2.7536-1.6563 3.6464-2.9925.8928-1.3361 1.3693-2.907 1.3693-4.514-.0023-2.15419-.859-4.21949-2.3823-5.74273-1.5232-1.52324-3.5885-2.38-5.7427-2.38227zm3.5672 6.69219-4.37501 4.37501c-.05804.0581-.12697.1042-.20285.1357-.07587.0314-.1572.0476-.23934.0476-.08213 0-.16346-.0162-.23933-.0476-.07588-.0315-.14481-.0776-.20285-.1357l-1.875-1.875c-.11728-.1173-.18316-.2763-.18316-.4422s.06588-.3249.18316-.4422c.11727-.1173.27633-.18315.44218-.18315.16586 0 .32492.06585.44219.18315l1.43281 1.4336 3.9328-3.93359c.0581-.05807.127-.10413.2029-.13556.0759-.03142.1572-.0476.2393-.0476s.1634.01618.2393.0476c.0759.03143.1448.07749.2029.13556s.1041.12701.1355.20288c.0315.07587.0477.15719.0477.23931s-.0162.16344-.0477.23931c-.0314.07587-.0774.14481-.1355.20288z" fill="#26ba5a"/></svg>